<?xml version="1.0" standalone="no"?>
<!DOCTYPE svg PUBLIC "-//W3C//DTD SVG 20010904//EN"
 "http://www.w3.org/TR/2001/REC-SVG-20010904/DTD/svg10.dtd">
<svg version="1.0" xmlns="http://www.w3.org/2000/svg"
 width="1250.000000pt" height="1250.000000pt" viewBox="0 0 1250.000000 1250.000000"
 preserveAspectRatio="xMidYMid meet">
<metadata>
Created by potrace 1.14, written by Peter Selinger 2001-2017
</metadata>
<g transform="translate(0.000000,1250.000000) scale(0.100000,-0.100000)"
fill="#000000" stroke="none">
<path d="M6007 11814 c-1 -1 -72 -4 -157 -8 -85 -4 -171 -8 -190 -11 -19 -2
-66 -7 -105 -10 -103 -9 -246 -27 -325 -41 -14 -2 -41 -7 -60 -10 -19 -3 -71
-12 -115 -21 -72 -13 -100 -19 -185 -38 -14 -3 -38 -8 -54 -11 -16 -2 -32 -7
-36 -9 -4 -2 -20 -7 -36 -9 -23 -5 -147 -39 -249 -70 -5 -1 -37 -11 -70 -21
-72 -21 -377 -130 -420 -149 -16 -8 -75 -33 -130 -56 -234 -98 -575 -280 -805
-429 -47 -31 -93 -60 -102 -66 -137 -86 -492 -367 -653 -515 -96 -89 -314
-309 -395 -399 -41 -46 -80 -89 -85 -95 -6 -6 -19 -23 -30 -37 -11 -15 -54
-69 -96 -120 -180 -224 -361 -491 -504 -744 -48 -86 -200 -387 -224 -445 -13
-30 -31 -73 -41 -95 -108 -241 -283 -779 -315 -970 -2 -11 -11 -51 -19 -90
-16 -70 -40 -204 -51 -280 -4 -22 -8 -51 -10 -65 -3 -14 -7 -50 -11 -80 -3
-30 -8 -64 -10 -75 -2 -11 -7 -51 -10 -90 -3 -38 -8 -86 -10 -105 -21 -212
-21 -701 1 -925 3 -27 7 -73 10 -101 3 -28 7 -67 9 -85 3 -19 8 -56 11 -84 16
-126 41 -268 76 -435 16 -80 32 -152 34 -160 87 -346 199 -669 337 -980 24
-54 158 -321 185 -370 11 -19 35 -62 53 -95 57 -102 108 -186 206 -335 59 -89
39 -62 175 -245 97 -131 157 -207 221 -280 9 -11 37 -42 60 -70 130 -150 337
-358 513 -514 341 -303 780 -600 1191 -804 215 -107 325 -156 545 -241 167
-65 536 -178 649 -199 14 -3 32 -8 40 -11 8 -3 26 -8 40 -10 14 -3 81 -16 150
-30 149 -30 161 -32 236 -42 33 -4 61 -9 64 -9 3 -1 32 -5 65 -9 33 -4 71 -9
85 -11 36 -6 112 -13 210 -21 47 -3 105 -8 130 -10 63 -5 573 -5 640 0 152 11
286 24 340 31 19 3 53 7 75 10 56 7 95 13 131 19 17 3 48 8 68 11 21 2 46 7
55 9 9 3 32 7 51 10 50 8 93 16 110 21 8 2 30 7 48 10 114 19 636 168 677 193
6 4 17 8 25 9 18 3 245 92 315 123 28 13 75 34 105 47 302 136 655 339 930
534 52 38 100 72 105 76 6 5 37 29 71 54 270 205 664 579 860 819 16 19 37 44
47 55 37 41 177 223 245 320 39 55 75 105 80 110 21 25 197 313 260 425 79
142 199 387 262 535 105 246 229 616 275 820 2 6 8 30 15 55 7 25 14 54 16 65
2 11 15 76 29 145 14 69 30 152 35 185 5 33 11 69 13 80 3 11 8 49 12 85 4 36
8 72 10 80 1 8 6 49 10 90 3 41 8 88 10 103 23 194 24 852 1 974 -2 10 -7 56
-11 103 -4 47 -9 92 -10 100 -2 9 -6 43 -10 75 -4 33 -9 69 -11 80 -2 11 -11
61 -19 110 -8 50 -21 123 -29 162 -9 40 -18 85 -21 101 -9 51 -85 335 -121
452 -47 154 -79 241 -194 530 -40 103 -201 431 -259 528 -17 29 -31 55 -31 57
0 3 -16 29 -35 59 -19 30 -35 57 -35 60 0 3 -13 24 -28 48 -16 24 -60 90 -98
148 -130 198 -324 452 -483 630 -99 112 -377 390 -475 475 -38 33 -74 65 -80
70 -108 101 -621 476 -692 506 -5 2 -58 34 -119 70 -138 83 -348 193 -485 254
-58 26 -123 55 -145 65 -249 111 -750 274 -965 314 -14 2 -47 10 -75 16 -61
14 -69 16 -125 25 -50 8 -73 12 -110 20 -14 3 -45 8 -70 11 -25 3 -52 7 -60 9
-8 2 -42 7 -75 11 -33 3 -68 8 -77 9 -15 3 -47 6 -208 20 -109 10 -556 25
-563 19z m508 -577 c33 -4 85 -9 115 -12 30 -3 66 -7 80 -9 14 -2 51 -7 84
-11 59 -7 85 -10 146 -21 19 -3 46 -8 60 -10 95 -16 293 -59 390 -85 63 -16
122 -31 130 -33 63 -16 335 -110 470 -163 160 -63 430 -190 577 -271 524 -290
1028 -703 1412 -1157 122 -143 115 -135 197 -245 221 -296 455 -698 584 -1000
17 -41 38 -88 45 -105 24 -54 102 -268 140 -385 38 -119 129 -468 138 -530 3
-19 11 -62 17 -95 13 -67 14 -68 30 -180 12 -82 14 -100 24 -195 33 -296 37
-712 11 -970 -2 -19 -7 -66 -11 -105 -9 -102 -15 -143 -30 -235 -2 -14 -9 -56
-15 -95 -6 -38 -14 -86 -19 -105 -5 -19 -12 -51 -15 -70 -3 -19 -8 -43 -11
-52 -3 -9 -7 -25 -9 -35 -2 -10 -9 -40 -15 -68 -6 -27 -13 -57 -15 -65 -2 -8
-15 -55 -30 -105 -15 -49 -30 -103 -34 -120 -10 -37 -79 -239 -96 -280 -7 -16
-21 -52 -30 -80 -53 -147 -207 -469 -313 -655 -57 -98 -221 -361 -232 -370 -3
-3 -17 -21 -30 -40 -29 -43 -161 -221 -175 -236 -13 -15 -37 -43 -99 -119 -54
-66 -71 -85 -172 -194 -103 -110 -260 -262 -363 -349 -30 -26 -62 -54 -71 -62
-94 -89 -444 -341 -630 -454 -25 -15 -52 -31 -60 -36 -71 -45 -450 -243 -470
-245 -3 -1 -21 -8 -40 -17 -179 -84 -619 -241 -733 -262 -14 -2 -30 -7 -35
-10 -5 -3 -22 -8 -38 -10 -16 -3 -38 -8 -49 -11 -70 -18 -228 -52 -285 -61
-19 -3 -37 -7 -40 -9 -3 -2 -33 -7 -65 -10 -33 -4 -62 -9 -65 -10 -3 -2 -51
-9 -107 -15 -56 -6 -111 -13 -122 -15 -138 -26 -853 -27 -1041 0 -14 2 -54 6
-90 10 -36 3 -87 10 -115 15 -27 5 -68 12 -90 15 -23 3 -52 8 -65 10 -14 3
-38 7 -55 10 -48 7 -111 20 -197 41 -10 2 -26 6 -35 8 -741 173 -1445 520
-2038 1005 -231 188 -517 470 -681 671 -16 19 -35 41 -42 48 -7 8 -25 30 -40
50 -15 21 -29 39 -32 42 -3 3 -24 31 -48 63 -23 31 -60 81 -81 110 -101 135
-341 526 -341 555 0 5 -3 12 -7 14 -18 7 -158 306 -235 498 -118 295 -249 758
-282 995 -2 11 -6 34 -9 50 -7 30 -9 45 -27 195 -6 47 -12 99 -15 115 -26 185
-27 881 -1 1020 2 11 7 52 10 90 7 70 12 109 21 155 3 14 7 43 10 65 2 22 7
51 10 65 3 14 14 72 26 130 66 336 188 722 326 1030 49 112 228 460 235 460 4
0 8 5 8 12 0 36 352 559 434 644 6 6 25 29 41 50 17 21 46 57 65 79 19 22 51
58 70 80 44 51 350 357 410 411 25 22 88 75 140 118 52 43 104 86 115 95 41
34 273 199 359 255 280 183 638 365 946 483 211 80 633 204 771 227 19 3 83
15 143 26 60 11 130 23 155 26 25 3 54 8 63 9 9 2 48 7 85 10 37 4 76 9 85 11
10 1 62 6 115 9 54 4 99 8 101 10 6 5 635 -2 697 -8z"/>
<path d="M3950 8690 l0 -220 68 0 c81 -1 4302 -1 4487 0 l130 0 0 220 0 220
-2342 0 -2343 0 0 -220z"/>
<path d="M3967 8042 c-15 -3 -17 -26 -17 -226 l0 -223 1053 -1 c578 -1 1055
-1 1058 -1 4 -1 7 -970 7 -2153 1 -1184 1 -2174 1 -2200 l1 -48 223 0 224 0
-1 2193 c-1 1205 0 2197 1 2202 2 7 362 10 1058 9 580 -1 1056 1 1056 5 4 21
3 434 -1 439 -5 7 -4629 10 -4663 4z"/>
<path d="M3967 7172 c-21 -4 -23 -23 -19 -248 l3 -191 852 1 852 1 0 218 c0
186 -2 217 -15 218 -41 3 -1659 4 -1673 1z"/>
<path d="M6934 7171 c-2 -2 -4 -103 -4 -223 l0 -218 852 3 853 2 0 218 c0 119
-2 217 -5 218 -18 3 -1692 3 -1696 0z"/>
</g>
</svg>
